<?xml version="1.0" standalone="no"?><!DOCTYPE svg PUBLIC "-//W3C//DTD SVG 1.1//EN" "http://www.w3.org/Graphics/SVG/1.1/DTD/svg11.dtd"><svg t="1605016513816" class="icon" viewBox="0 0 1025 1024" version="1.1" xmlns="http://www.w3.org/2000/svg" p-id="1522" xmlns:xlink="http://www.w3.org/1999/xlink" width="200.1953125" height="200"><defs><style type="text/css"></style></defs><path d="M512 1024C230.4 1024 0 793.6 0 512S230.4 0 512 0s512 230.4 512 512S793.6 1024 512 1024zM512 85.333333C277.333333 85.333333 85.333333 277.333333 85.333333 512s192 426.666667 426.666667 426.666667 426.666667-192 426.666667-426.666667S746.666667 85.333333 512 85.333333z" p-id="1523" fill="#1296db"></path><path d="M217.6 921.6c-12.8 0-25.6-4.266667-34.133333-17.066667-12.8-17.066667-8.533333-46.933333 8.533333-59.733333C285.866667 776.533333 341.333333 648.533333 341.333333 512c0-85.333333-21.333333-162.133333-59.733333-230.4C256 238.933333 226.133333 204.8 192 179.2 174.933333 166.4 170.666667 140.8 183.466667 119.466667c12.8-17.066667 42.666667-21.333333 59.733333-8.533333 42.666667 34.133333 81.066667 76.8 110.933333 128 46.933333 76.8 72.533333 170.666667 72.533333 268.8 0 166.4-68.266667 315.733333-183.466667 405.333333C234.666667 917.333333 226.133333 921.6 217.6 921.6z" p-id="1524" fill="#1296db"></path><path d="M806.4 921.6c-8.533333 0-17.066667-4.266667-25.6-8.533333-115.2-85.333333-183.466667-234.666667-183.466667-401.066667 0-102.4 25.6-196.266667 72.533333-277.333333 29.866667-46.933333 64-89.6 106.666667-123.733333 17.066667-12.8 46.933333-8.533333 59.733333 8.533333 12.8 17.066667 8.533333 46.933333-8.533333 59.733333-34.133333 25.6-64 59.733333-85.333333 98.133333C704 345.6 682.666667 426.666667 682.666667 512c0 136.533333 55.466667 264.533333 149.333333 332.8 17.066667 12.8 21.333333 42.666667 8.533333 59.733333C832 913.066667 819.2 921.6 806.4 921.6z" p-id="1525" fill="#1296db"></path><path d="M554.666667 554.666667c-64 0-119.466667 0-170.666667-4.266667-136.533333-4.266667-243.2-17.066667-332.8-29.866667-21.333333-4.266667-38.4-25.6-38.4-46.933333s25.6-38.4 46.933333-38.4c85.333333 12.8 196.266667 25.6 324.266667 29.866667 51.2 0 106.666667 4.266667 170.666667 4.266667 29.866667 0 55.466667 0 85.333333 0 119.466667 0 234.666667-8.533333 337.066667-17.066667 21.333333-4.266667 42.666667 12.8 46.933333 38.4 4.266667 21.333333-12.8 42.666667-38.4 46.933333-102.4 8.533333-221.866667 17.066667-345.6 17.066667C614.4 554.666667 584.533333 554.666667 554.666667 554.666667z" p-id="1526" fill="#1296db"></path></svg>