<?xml version="1.0" encoding="UTF-8" standalone="no"?>
<svg
   xmlns:dc="http://purl.org/dc/elements/1.1/"
   xmlns:cc="http://creativecommons.org/ns#"
   xmlns:rdf="http://www.w3.org/1999/02/22-rdf-syntax-ns#"
   xmlns:svg="http://www.w3.org/2000/svg"
   xmlns="http://www.w3.org/2000/svg"
   xmlns:sodipodi="http://sodipodi.sourceforge.net/DTD/sodipodi-0.dtd"
   xmlns:inkscape="http://www.inkscape.org/namespaces/inkscape"
   enable-background="new 0 0 100 100"
   height="50"
   viewBox="0 0 100 100"
   width="50"
   version="1.1"
   id="svg18"
   sodipodi:docname="logo.svg"
   inkscape:version="1.0.1 (c497b03c, 2020-09-10)">
  <metadata
     id="metadata24">
    <rdf:RDF>
      <cc:Work
         rdf:about="">
        <dc:format>image/svg+xml</dc:format>
        <dc:type
           rdf:resource="http://purl.org/dc/dcmitype/StillImage" />
      </cc:Work>
    </rdf:RDF>
  </metadata>
  <defs
     id="defs22">
    <style
       type="text/css"
       id="style26" />
  </defs>
  <sodipodi:namedview
     pagecolor="#ffffff"
     bordercolor="#666666"
     borderopacity="1"
     objecttolerance="10"
     gridtolerance="10"
     guidetolerance="10"
     inkscape:pageopacity="0"
     inkscape:pageshadow="2"
     inkscape:window-width="1440"
     inkscape:window-height="805"
     id="namedview20"
     showgrid="false"
     inkscape:zoom="2.5263736"
     inkscape:cx="4.9902029"
     inkscape:cy="117.1675"
     inkscape:window-x="0"
     inkscape:window-y="23"
     inkscape:window-maximized="1"
     inkscape:current-layer="svg18" />
  <g
     fill="#0067f4"
     id="g16" />
  <g
     id="g49"
     transform="matrix(0.0908557,0,0,0.0908557,3.533332,4.033332)">
    <path
       d="M 512,1024 C 230.4,1024 0,793.6 0,512 0,230.4 230.4,0 512,0 c 281.6,0 512,230.4 512,512 0,281.6 -230.4,512 -512,512 z M 512,85.333333 C 277.33333,85.333333 85.333333,277.33333 85.333333,512 c 0,234.66667 191.999997,426.66667 426.666667,426.66667 234.66667,0 426.66667,-192 426.66667,-426.66667 0,-234.66667 -192,-426.666667 -426.66667,-426.666667 z"
       p-id="1523"
       fill="#1296db"
       id="path30" />
    <path
       d="m 217.6,921.6 c -12.8,0 -25.6,-4.26667 -34.13333,-17.06667 C 170.66667,887.46667 174.93333,857.6 192,844.8 285.86667,776.53333 341.33333,648.53333 341.33333,512 341.33333,426.66667 320,349.86667 281.6,281.6 256,238.93333 226.13333,204.8 192,179.2 c -17.06667,-12.8 -21.33333,-38.4 -8.53333,-59.73333 12.8,-17.06667 42.66666,-21.333336 59.73333,-8.53334 42.66667,34.13334 81.06667,76.8 110.93333,128 46.93334,76.8 72.53334,170.66667 72.53334,268.8 0,166.4 -68.26667,315.73334 -183.46667,405.33334 -8.53333,4.26666 -17.06667,8.53333 -25.6,8.53333 z"
       p-id="1524"
       fill="#1296db"
       id="path32" />
    <path
       d="m 806.4,921.6 c -8.53333,0 -17.06667,-4.26667 -25.6,-8.53333 C 665.6,827.73333 597.33333,678.4 597.33333,512 c 0,-102.4 25.6,-196.26667 72.53334,-277.33333 29.86666,-46.93334 64,-89.6 106.66666,-123.73334 C 793.6,98.133334 823.46667,102.4 836.26667,119.46667 849.06667,136.53333 844.8,166.4 827.73333,179.2 793.6,204.8 763.73333,238.93333 742.4,277.33333 704,345.6 682.66667,426.66667 682.66667,512 c 0,136.53333 55.46666,264.53333 149.33333,332.8 17.06667,12.8 21.33333,42.66667 8.53333,59.73333 C 832,913.06667 819.2,921.6 806.4,921.6 Z"
       p-id="1525"
       fill="#1296db"
       id="path34" />
    <path
       d="m 554.66667,554.66667 c -64,0 -119.46667,0 -170.66667,-4.26667 C 247.46667,546.13333 140.8,533.33333 51.2,520.53333 29.866667,516.26667 12.8,494.93333 12.8,473.6 12.8,452.26667 38.4,435.2 59.733333,435.2 145.06667,448 256,460.8 384,465.06667 c 51.2,0 106.66667,4.26666 170.66667,4.26666 29.86666,0 55.46666,0 85.33333,0 119.46667,0 234.66667,-8.53333 337.06667,-17.06666 C 998.4,448 1019.7333,465.06667 1024,490.66667 1028.2667,512 1011.2,533.33333 985.6,537.6 883.2,546.13333 763.73333,554.66667 640,554.66667 c -25.6,0 -55.46667,0 -85.33333,0 z"
       p-id="1526"
       fill="#1296db"
       id="path36" />
  </g>
</svg>
